<?xml version="1.0" encoding="utf-8"?>
<!-- Generator: Adobe Illustrator 24.3.0, SVG Export Plug-In . SVG Version: 6.00 Build 0)  -->
<svg version="1.1" id="Layer_1" xmlns="http://www.w3.org/2000/svg" xmlns:xlink="http://www.w3.org/1999/xlink" x="0px" y="0px"
	 viewBox="0 0 64 64" style="enable-background:new 0 0 64 64;" xml:space="preserve">
<style type="text/css">
	.st0{fill:#7077FF;}
	.st1{fill:none;stroke:#FFFFFF;stroke-width:2;stroke-linejoin:round;stroke-miterlimit:10;}
</style>
<circle class="st0" cx="32" cy="32" r="30"/>
<g>
	<path class="st1" d="M40.2,17.8h3c2.5,0,4.5,2,4.5,4.5v22.5c0,2.5-2,4.5-4.5,4.5H20.8c-2.5,0-4.5-2-4.5-4.5V22.2
		c0-2.5,2-4.5,4.5-4.5h9"/>
	<line class="st1" x1="23.7" y1="49.2" x2="23.7" y2="17.8"/>
	<line class="st1" x1="47.7" y1="41.8" x2="16.2" y2="41.8"/>
	<circle class="st1" cx="35" cy="20.7" r="2.2"/>
	<path class="st1" d="M35,14.8c-3.3,0-6,2.7-6,5.9c0,2,2.1,4.8,3.9,6.8c1.2,1.3,2.1,2.3,2.1,2.3s1-0.9,2.1-2.3
		c1.7-2,3.9-4.8,3.9-6.8C41,17.4,38.3,14.8,35,14.8z"/>
</g>
</svg>
