<?xml version="1.0" encoding="utf-8"?>
<!-- Generator: Adobe Illustrator 24.3.0, SVG Export Plug-In . SVG Version: 6.00 Build 0)  -->
<svg version="1.1" id="Layer_1" xmlns="http://www.w3.org/2000/svg" xmlns:xlink="http://www.w3.org/1999/xlink" x="0px" y="0px"
	 viewBox="0 0 64 64" style="enable-background:new 0 0 64 64;" xml:space="preserve">
<style type="text/css">
	.st0{fill:none;stroke:#939DB5;stroke-width:2;stroke-linejoin:round;stroke-miterlimit:10;}
	.st1{fill:none;stroke:#939DB5;stroke-width:2;stroke-linecap:round;stroke-linejoin:round;stroke-miterlimit:10;}
</style>
<g>
	<circle class="st0" cx="32" cy="32" r="6.3"/>
	<path class="st1" d="M49.2,34.2v-4.5c0-0.4-0.3-0.7-0.7-0.7h-2c-0.3,0-0.6-0.2-0.7-0.6c-0.3-1.3-0.9-2.5-1.5-3.6
		c-0.2-0.3-0.1-0.7,0.1-0.9l1.4-1.4c0.3-0.3,0.3-0.8,0-1.1l-3.2-3.2c-0.3-0.3-0.8-0.3-1.1,0l-1.4,1.4c-0.2,0.2-0.6,0.3-0.9,0.1
		c-1.1-0.7-2.3-1.2-3.6-1.5c-0.3-0.1-0.6-0.4-0.6-0.7v-2c0-0.4-0.3-0.7-0.7-0.7h-4.5c-0.4,0-0.7,0.3-0.7,0.7v2
		c0,0.3-0.2,0.6-0.6,0.7c-1.3,0.3-2.5,0.9-3.6,1.5c-0.3,0.2-0.7,0.1-0.9-0.1l-1.4-1.4c-0.3-0.3-0.8-0.3-1.1,0l-3.2,3.2
		c-0.3,0.3-0.3,0.8,0,1.1l1.4,1.4c0.2,0.2,0.3,0.6,0.1,0.9c-0.7,1.1-1.2,2.3-1.5,3.6c-0.1,0.3-0.4,0.6-0.7,0.6h-2
		c-0.4,0-0.7,0.3-0.7,0.7v4.5c0,0.4,0.3,0.7,0.7,0.7h2c0.3,0,0.6,0.2,0.7,0.6c0.3,1.3,0.9,2.5,1.5,3.6c0.2,0.3,0.1,0.7-0.1,0.9
		l-1.4,1.4c-0.3,0.3-0.3,0.8,0,1.1l3.2,3.2c0.3,0.3,0.8,0.3,1.1,0l1.4-1.4c0.2-0.2,0.6-0.3,0.9-0.1c1.1,0.7,2.3,1.2,3.6,1.5
		c0.3,0.1,0.6,0.4,0.6,0.7v2c0,0.4,0.3,0.7,0.7,0.7h4.5c0.4,0,0.7-0.3,0.7-0.7v-2c0-0.3,0.2-0.6,0.6-0.7c1.3-0.3,2.5-0.9,3.6-1.5
		c0.3-0.2,0.7-0.1,0.9,0.1l1.4,1.4c0.3,0.3,0.8,0.3,1.1,0l3.2-3.2c0.3-0.3,0.3-0.8,0-1.1L44.4,40c-0.2-0.2-0.3-0.6-0.1-0.9
		c0.7-1.1,1.2-2.3,1.5-3.6c0.1-0.3,0.4-0.6,0.7-0.6h2C48.9,35,49.2,34.7,49.2,34.2z"/>
</g>
</svg>
